<svg width="100" height="100" viewBox="0 0 100 100" fill="none" xmlns="http://www.w3.org/2000/svg">
<path d="M50 42.75C48.3125 42.75 46.7188 42.3437 45.375 41.625C44.9063 41.375 44.4375 41.9063 44.7188 42.3438C45.8438 44.0625 47.7813 45.2188 50 45.2188C52.2188 45.2188 54.1563 44.0625 55.2813 42.3438C55.5625 41.9063 55.0625 41.4062 54.625 41.625C53.2813 42.3437 51.7188 42.75 50 42.75ZM38.0625 32.125C38.5313 30.1875 40.2813 28.75 42.375 28.75C44.5313 28.75 46.3438 30.2813 46.75 32.3438C46.7738 32.4503 46.7729 32.5608 46.7476 32.6669C46.7223 32.7731 46.6732 32.8721 46.6039 32.9564C46.5346 33.0408 46.4471 33.1082 46.3478 33.1537C46.2486 33.1991 46.1404 33.2214 46.0313 33.2188H45.7813C45.8438 32.9688 45.875 32.7188 45.875 32.4688C45.875 30.9063 44.625 29.625 43.0313 29.625C42.5939 29.6258 42.1625 29.7272 41.7706 29.9212C41.3786 30.1153 41.0365 30.3969 40.7707 30.7443C40.5049 31.0916 40.3226 31.4954 40.2377 31.9245C40.1528 32.3535 40.1677 32.7964 40.2813 33.2188H38.9063C38.3438 33.2188 37.9375 32.6875 38.0625 32.125Z" fill="black"/>
<path d="M44.6563 32.4375C44.6563 31.5313 43.9375 30.8125 43.0313 30.8125C42.8124 30.809 42.5952 30.8516 42.3938 30.9375C42.47 31.0047 42.5239 31.0935 42.5483 31.1922C42.5728 31.2908 42.5666 31.3945 42.5307 31.4895C42.4947 31.5845 42.4306 31.6664 42.347 31.7241C42.2633 31.7818 42.1641 31.8126 42.0625 31.8125C41.9792 31.8124 41.8973 31.7914 41.8242 31.7516C41.7511 31.7117 41.689 31.6543 41.6438 31.5844C41.4975 31.8244 41.416 32.0983 41.4072 32.3793C41.3984 32.6603 41.4627 32.9388 41.5938 33.1875H44.4688C44.5938 32.9688 44.6563 32.7188 44.6563 32.4375ZM61.9688 32.125C61.5 30.1875 59.75 28.75 57.6563 28.75C55.4688 28.75 53.6875 30.2813 53.2813 32.3438C53.1875 32.8125 53.5313 33.2188 54 33.2188H54.2188C54.178 33.0182 54.1571 32.8141 54.1563 32.6094C54.1521 32.2348 54.2228 31.8631 54.3642 31.5162C54.5056 31.1693 54.7149 30.8541 54.9798 30.5892C55.2448 30.3243 55.5599 30.115 55.9068 29.9736C56.2537 29.8321 56.6254 29.7614 57 29.7656C57.4249 29.7668 57.8442 29.8629 58.2273 30.0469C58.6103 30.2309 58.9474 30.4981 59.214 30.8291C59.4805 31.16 59.6698 31.5463 59.7679 31.9597C59.8661 32.3732 59.8706 32.8033 59.7813 33.2188H61.125C61.6875 33.2188 62.0938 32.6875 61.9688 32.125Z" fill="black"/>
<path d="M56.4062 30.9219C56.7148 30.7939 57.0555 30.7649 57.3812 30.8388C57.707 30.9128 58.0017 31.0862 58.2247 31.3349C58.4477 31.5836 58.588 31.8954 58.6261 32.2273C58.6642 32.5592 58.5983 32.8947 58.4375 33.1875H55.5625C55.4261 32.9296 55.3617 32.6396 55.376 32.3482C55.3903 32.0568 55.4828 31.7746 55.6437 31.5312C55.6767 31.5985 55.7243 31.6575 55.7831 31.7039C55.8419 31.7503 55.9103 31.7829 55.9834 31.7993C56.0565 31.8157 56.1323 31.8155 56.2053 31.7987C56.2782 31.7818 56.3465 31.7488 56.405 31.7021C56.4635 31.6553 56.5108 31.596 56.5433 31.5285C56.5758 31.4611 56.5927 31.3871 56.5929 31.3123C56.593 31.2374 56.5763 31.1634 56.544 31.0958C56.5117 31.0283 56.4646 30.9688 56.4062 30.9219Z" fill="black"/>
<path d="M36.2344 8.05C37.181 6.53912 38.4968 5.29418 40.0578 4.43253C41.6187 3.57088 43.3733 3.1209 45.1562 3.125C46.6656 3.125 48.0406 3.4375 49.2875 3.95625L49.3437 3.97812C49.5505 4.06939 49.774 4.11653 50 4.11653C50.226 4.11653 50.4495 4.06939 50.6562 3.97812L50.675 3.97187C51.9836 3.41556 53.3906 3.12758 54.8125 3.125C58.6563 3.125 61.9688 5.1875 63.8406 8.19062L63.8594 8.22187C64.4125 9.13437 65.3531 9.87812 66.4875 10.2531L66.5219 10.2656C67.8781 10.7344 69.1625 11.4844 70.2625 12.5H91.75C92.8438 12.5 93.6875 13.375 93.6875 14.4375V76.125C93.6959 76.3805 93.6528 76.6352 93.5607 76.8737C93.4687 77.1122 93.3296 77.3298 93.1518 77.5135C92.9739 77.6972 92.7609 77.8432 92.5255 77.9429C92.29 78.0426 92.0369 78.0939 91.7813 78.0937H87.175C87.3708 79.6417 87.4687 81.2146 87.4687 82.8125V90.625C87.4687 94.0687 84.6625 96.875 81.2187 96.875H15.625C14.7962 96.875 14.0013 96.5458 13.4153 95.9597C12.8292 95.3737 12.5 94.5788 12.5 93.75V82.8125C12.5 81.2125 12.5979 79.6396 12.7937 78.0937H8.1875C7.125 78.0937 6.25 77.2188 6.25 76.1563V14.4375C6.25 13.375 7.125 12.5 8.1875 12.5H29.7125C30.8 11.5 32.0719 10.7406 33.45 10.2656C34.575 9.875 35.575 9.0875 36.2312 8.05M55.0188 51.5187C57.2797 51.092 59.35 49.967 60.9381 48.302C62.5262 46.6371 63.5523 44.5161 63.8719 42.2375L64.1156 38.2437C64.1391 37.8691 64.2967 37.5155 64.5595 37.2476C64.8223 36.9796 65.1728 36.8152 65.5469 36.7844C65.924 36.7531 66.2865 36.6667 66.6344 36.525C66.7952 36.4266 66.9647 36.3429 67.1406 36.275C67.6802 35.9519 68.1285 35.4964 68.4429 34.9517C68.7574 34.407 68.9277 33.7911 68.9377 33.1622C68.9477 32.5333 68.7971 31.9123 68.5001 31.3578C68.2032 30.8034 67.7697 30.3339 67.2406 29.9937C66.9935 29.9069 66.7584 29.7893 66.5406 29.6437C66.3655 29.5755 66.1845 29.5232 66 29.4875C65.8517 29.4573 65.7085 29.4057 65.575 29.3344C65.5649 29.3785 65.5597 29.4235 65.5594 29.4687V32.9375C65.5594 36.25 62.8719 38.9062 59.5906 38.9062H57.3719C56.5065 38.9082 55.6512 38.721 54.8658 38.3577C54.0804 37.9944 53.3838 37.4638 52.825 36.8031L53.0594 37.5625C53.4031 38.6562 52.5906 39.7812 51.4344 39.7812H48.9969C47.8406 39.7812 47.0281 38.6562 47.3719 37.5625L47.5719 36.9156C46.4781 38.1375 44.8844 38.9062 43.1219 38.9062H40.9031C39.3201 38.9062 37.8019 38.2774 36.6826 37.158C35.5632 36.0387 34.9344 34.5205 34.9344 32.9375V29.5C34.9306 29.4164 34.907 29.3349 34.8658 29.2622C34.8245 29.1894 34.7666 29.1274 34.6969 29.0812C34.4708 29.2677 34.1968 29.3868 33.9063 29.425C33.7317 29.4458 33.5592 29.4814 33.3906 29.5312C33.0807 29.7458 32.7345 29.9025 32.3687 29.9937C31.8419 30.3371 31.4114 30.8094 31.1181 31.3657C30.8248 31.9221 30.6784 32.5441 30.6928 33.1728C30.7072 33.8016 30.8819 34.4162 31.2004 34.9586C31.5188 35.5009 31.9704 35.953 32.5125 36.2719C32.7938 36.3552 33.0542 36.4698 33.2938 36.6156C33.6458 36.726 34.0083 36.7812 34.3812 36.7812C34.7789 36.7804 35.1619 36.9313 35.4522 37.203C35.7425 37.4747 35.9183 37.8469 35.9437 38.2437L36.2125 42.3344C36.544 44.5939 37.5725 46.6936 39.1545 48.3406C40.7365 49.9876 42.7931 51.0997 45.0375 51.5219H45.1219V51.5344C45.751 51.649 46.3896 51.7073 47.0375 51.7094H53.025C53.65 51.7094 54.2646 51.6552 54.8688 51.5469V51.5187H55.0188ZM64.8031 26.5312L64.8562 25.1969C64.8817 24.383 64.5852 23.592 64.0312 22.9953C63.4773 22.3986 62.7103 22.0443 61.8969 22.0094H57.4812C55.6807 22.013 53.9172 21.498 52.4015 20.526C50.8859 19.554 49.6822 18.166 48.9344 16.5281C48.8907 16.413 48.8141 16.3133 48.714 16.2416C48.6139 16.1699 48.4949 16.1293 48.3719 16.125H44.2781C41.8551 16.1274 39.531 17.0858 37.8106 18.7921C36.0903 20.4984 35.1129 22.8146 35.0906 25.2375L35.1781 26.55C35.2421 26.5387 35.3069 26.5325 35.3719 26.5312H38.6344C38.4614 26.4267 38.3301 26.2655 38.2625 26.075C38.2025 25.9068 38.1974 25.7239 38.2479 25.5526C38.2985 25.3814 38.402 25.2305 38.5437 25.1219C40.2709 23.9102 42.3892 23.3895 44.4813 23.6625C44.6477 23.683 44.8044 23.7519 44.932 23.8607C45.0596 23.9695 45.1525 24.1133 45.199 24.2744C45.2456 24.4355 45.2439 24.6067 45.1941 24.7668C45.1443 24.9269 45.0485 25.0688 44.9187 25.175C44.8313 25.244 44.731 25.295 44.6238 25.325C44.5165 25.355 44.4043 25.3635 44.2937 25.35C42.6057 25.1374 40.8988 25.5583 39.5031 26.5312H46.25C47.1875 26.5312 48.0625 26.9687 48.6562 27.6875C49.0312 28.1562 49.5937 28.4375 50.25 28.4375C50.9062 28.4375 51.4688 28.1562 51.8438 27.6875C52.4375 26.9687 53.3125 26.5312 54.25 26.5312H60.5375L60.4531 26.4719C59.0711 25.5592 57.4102 25.1661 55.7656 25.3625C55.5446 25.38 55.3255 25.311 55.1543 25.1702C54.983 25.0294 54.8731 24.8276 54.8476 24.6074C54.8221 24.3872 54.883 24.1657 55.0175 23.9894C55.152 23.8132 55.3496 23.696 55.5687 23.6625C57.6604 23.3956 59.7766 23.9158 61.5062 25.1219C61.6155 25.208 61.7021 25.3194 61.7587 25.4464C61.8152 25.5735 61.8399 25.7125 61.8307 25.8513C61.8214 25.99 61.7785 26.1245 61.7057 26.243C61.6328 26.3614 61.5322 26.4604 61.4125 26.5312H64.8031ZM51.4031 32.2187V31.0625C51.3919 30.7623 51.2655 30.478 51.0502 30.2685C50.8349 30.059 50.5472 29.9405 50.2469 29.9375C49.6219 29.9375 49.1219 30.4062 49.0906 31.0312V32.0562C49.5594 31.0344 51.075 31.0875 51.4031 32.2187ZM45.3719 54.725C45.6929 55.6951 46.3113 56.5396 47.1392 57.1386C47.9672 57.7375 48.9627 58.0606 49.9846 58.062C51.0064 58.0634 52.0028 57.743 52.8324 57.1463C53.662 56.5495 54.2826 55.7068 54.6063 54.7375C54.0854 54.8 53.5615 54.8323 53.0344 54.8344H47.0469C46.4844 54.8344 45.925 54.7979 45.3687 54.725M62.125 53.8375L64.75 59.4813C65.0312 60.0219 64.5938 60.6469 63.9313 60.6469H60.6281C59.8719 60.6469 59.525 61.475 60.0312 61.9281L60.6719 62.5H65.1187C66.525 62.5 67.65 63.625 67.65 65.0312V65.1375H67.6687V70.625H67.7125C70.2937 70.625 72.4 72.7313 72.4 75.3125V90.625H81.2125V82.8125C81.2125 70.1562 73.7125 59.2687 62.9094 54.35C62.6236 54.2196 62.3592 54.0468 62.125 53.8375ZM67.65 73.7531V77.15C67.6682 77.3654 67.6414 77.5823 67.5715 77.7868C67.5015 77.9914 67.3899 78.1792 67.2436 78.3384C67.0973 78.4976 66.9196 78.6247 66.7217 78.7117C66.5238 78.7987 66.3099 78.8436 66.0937 78.8437H58.125C58.0221 78.8646 57.9175 78.8751 57.8125 78.875C57.3219 78.875 56.9781 79.2563 56.9687 79.6313V79.65C56.9664 79.7845 56.9989 79.9173 57.0629 80.0355C57.127 80.1538 57.2205 80.2535 57.3344 80.325C57.5495 80.4686 57.7256 80.6634 57.8469 80.8918C57.9682 81.1203 58.0309 81.3752 58.0293 81.6339C58.0278 81.8925 57.962 82.1468 57.838 82.3737C57.714 82.6007 57.5356 82.7934 57.3187 82.9344C57.2144 83.0034 57.1281 83.0965 57.0672 83.2058C57.0063 83.3151 56.9725 83.4374 56.9687 83.5625C56.9687 83.8437 57.1 84.0531 57.2906 84.1719C57.5143 84.3103 57.6994 84.503 57.8288 84.732C57.9582 84.961 58.0277 85.219 58.0308 85.482C58.0339 85.7451 57.9706 86.0046 57.8467 86.2367C57.7227 86.4687 57.5422 86.6657 57.3219 86.8094C57.2169 86.878 57.13 86.971 57.0686 87.0803C57.0071 87.1896 56.9729 87.3121 56.9687 87.4375C56.9687 87.7187 57.1 87.9281 57.2906 88.0469C57.5068 88.1807 57.6871 88.3653 57.8158 88.5846C57.9445 88.804 58.0177 89.0514 58.0291 89.3054C58.0405 89.5594 57.9897 89.8124 57.8812 90.0424C57.7726 90.2723 57.6096 90.4723 57.4063 90.625H69.2813V75.3125C69.2801 75.1023 69.2368 74.8945 69.154 74.7013C69.0711 74.5082 68.9504 74.3336 68.7989 74.1879C68.6474 74.0422 68.4682 73.9284 68.2719 73.8532C68.0757 73.778 67.8663 73.7429 67.6562 73.75M64.55 70.6219V65.1844H37.8125C37.0914 65.1844 36.3999 65.4708 35.8901 65.9807C35.3802 66.4905 35.0938 67.1821 35.0938 67.9031C35.0938 68.6242 35.3802 69.3157 35.8901 69.8256C36.3999 70.3354 37.0914 70.6219 37.8125 70.6219H64.55ZM56.4156 57.9344C55.6495 58.9731 54.6431 59.8107 53.4825 60.3755C52.3219 60.9403 51.0418 61.2154 49.7517 61.1773C48.4615 61.1392 47.1998 60.7891 46.0746 60.1568C44.9494 59.5245 43.9941 58.629 43.2906 57.5469V62.5H56.4156V57.9344ZM39.6719 61.9281C40.175 61.4719 39.8281 60.6469 39.075 60.6469H35.7688C35.1094 60.6469 34.6688 60.0188 34.95 59.4781L37.9406 53.7469C37.6809 54.0026 37.3784 54.211 37.0469 54.3625C31.5884 56.8487 26.9608 60.8532 23.7164 65.8979C20.472 70.9427 18.7479 76.8145 18.75 82.8125V90.625H27.5625V75.3125C27.5625 73.9375 28.2313 72.7594 29.0719 71.9594C29.8844 71.1906 31.0188 70.6219 32.2188 70.625V68.375C32.2188 65.125 34.8437 62.4687 38.125 62.5H39.0312L39.6719 61.9281ZM32.2188 73.75C31.8393 73.7826 31.4848 73.9526 31.2219 74.2281C31.0652 74.3643 30.9373 74.5304 30.8456 74.7165C30.7538 74.9027 30.7001 75.1053 30.6875 75.3125V90.625H42.5625C42.3591 90.4723 42.1961 90.2723 42.0876 90.0424C41.979 89.8124 41.9282 89.5594 41.9396 89.3054C41.951 89.0514 42.0242 88.804 42.1529 88.5846C42.2816 88.3653 42.4619 88.1807 42.6781 88.0469C42.7807 87.9826 42.8644 87.8924 42.9209 87.7854C42.9774 87.6784 43.0047 87.5584 43 87.4375C42.9957 87.313 42.9617 87.1912 42.9009 87.0825C42.84 86.9738 42.754 86.8812 42.65 86.8125C42.4288 86.6692 42.2474 86.4723 42.1228 86.2401C41.9981 86.0079 41.9343 85.748 41.9371 85.4844C41.9399 85.2209 42.0093 84.9624 42.1389 84.7329C42.2684 84.5034 42.4539 84.3104 42.6781 84.1719C42.7807 84.1076 42.8644 84.0174 42.9209 83.9104C42.9774 83.8034 43.0047 83.6834 43 83.5625C42.9957 83.438 42.9617 83.3162 42.9009 83.2075C42.84 83.0988 42.754 83.0062 42.65 82.9375C42.4325 82.7966 42.2535 82.6038 42.129 82.3766C42.0046 82.1493 41.9386 81.8946 41.9371 81.6355C41.9355 81.3763 41.9984 81.1209 42.1202 80.8921C42.2419 80.6634 42.4186 80.4685 42.6344 80.325C42.7483 80.2535 42.8418 80.1538 42.9058 80.0355C42.9699 79.9173 43.0023 79.7845 43 79.65V79.6313C42.9906 79.2563 42.6469 78.875 42.1562 78.875C42.0513 78.8751 41.9466 78.8646 41.8438 78.8437H33.8313C33.4275 78.8441 33.0392 78.6881 32.7479 78.4084C32.4566 78.1288 32.2849 77.7472 32.2688 77.3437H32.25V73.75H32.2188ZM26.425 18.75H12.5V71.8437H14.1281C16.9222 62.7434 23.0646 55.0418 31.3156 50.2937C30.4624 48.5508 29.8898 46.6841 29.6187 44.7625C29.1152 43.7748 28.7794 42.7103 28.625 41.6125C25.45 40.1219 23.3313 36.8156 23.3313 33.1156C23.3313 29.8406 24.9906 26.8719 27.575 25.2C26.5218 23.2248 26.1193 20.9675 26.425 18.75ZM85.8437 71.8437H87.4687V18.75H73.5375C73.8582 21.0751 73.4 23.4409 72.2344 25.4781C73.4305 26.3591 74.4017 27.5099 75.0691 28.8371C75.7364 30.1642 76.0811 31.6301 76.075 33.1156C76.0864 34.7789 75.6551 36.4153 74.8253 37.8568C73.9955 39.2984 72.7971 40.4932 71.3531 41.3187C71.224 42.5394 70.8712 43.7258 70.3125 44.8187C70.0366 46.7111 69.4727 48.5501 68.6406 50.2719C76.9039 55.0198 83.0536 62.7311 85.8437 71.8437ZM42.875 37.7812C45.7188 37.7812 48.0312 35.4687 48.0312 32.625H48V30.375C48 28.8437 46.7812 27.625 45.25 27.625H38.75C37.2187 27.625 36 28.8437 36 30.375V32.625C36 35.4687 38.3125 37.7812 41.1563 37.7812H42.875ZM59.375 37.7812C62.2188 37.7812 64.5312 35.4687 64.5312 32.625V30.375C64.5312 28.8437 63.3125 27.625 61.7813 27.625H55.25C53.7188 27.625 52.5 28.8437 52.5 30.375V32.625C52.5 35.4687 54.8125 37.7812 57.6563 37.7812H59.375Z" fill="black"/>
</svg>
