<svg width="100" height="100" viewBox="0 0 100 100" fill="none" xmlns="http://www.w3.org/2000/svg">
<path d="M15.2778 22.1653H84.7222V77.7181H15.2778V22.1653Z" fill="#787878"/>
<path d="M20.8111 34.7056H31.9222V50.0986H20.8111V34.7056Z" fill="#8B8888"/>
<path d="M78.375 72.0903H44.3083V35.4167H78.375V54.8222V72.0903Z" fill="#B5B592"/>
<path d="M16.7472 28.9069H83.5083M37.8472 76.8389V28.9069M15.2778 22.1653H84.7222V77.7181H15.2778V22.1653Z" stroke="black" stroke-width="0.666667" stroke-miterlimit="10" stroke-linecap="round" stroke-linejoin="round"/>
<path d="M78.375 72.0903H44.3083M78.375 72.0903V54.8222V35.4167M78.375 72.0903L44.3083 35.4167M44.3083 72.0903V35.4167M44.3083 72.0903L78.375 35.4167M44.3083 35.4167H78.375M20.6847 59.4167H27.7653M20.6847 64.9722H32.2236M20.6847 70.5278H27.7653M20.8111 34.7056H31.9222V50.0986H20.8111V34.7056Z" stroke="black" stroke-width="0.666667" stroke-miterlimit="10" stroke-linecap="round" stroke-linejoin="round"/>
</svg>
