<svg width="100" height="100" viewBox="0 0 100 100" fill="none" xmlns="http://www.w3.org/2000/svg">
<path d="M27 36.7773L11.1328 50L27 63.2227C27.3244 63.4823 27.5937 63.8041 27.7923 64.1691C27.9908 64.5342 28.1145 64.9352 28.1563 65.3486C28.198 65.762 28.1568 66.1796 28.0352 66.577C27.9135 66.9743 27.7139 67.3434 27.4479 67.6626C27.1819 67.9819 26.8549 68.2449 26.486 68.4362C26.1172 68.6276 25.7139 68.7434 25.2997 68.777C24.8855 68.8106 24.4688 68.7613 24.0739 68.6319C23.6791 68.5025 23.314 68.2956 23 68.0234L4.24999 52.3984C3.89817 52.1052 3.61511 51.7381 3.42086 51.3233C3.22662 50.9085 3.12593 50.4561 3.12593 49.998C3.12593 49.54 3.22662 49.0876 3.42086 48.6728C3.61511 48.258 3.89817 47.8909 4.24999 47.5977L23 31.9727C23.6371 31.4422 24.4589 31.1866 25.2845 31.2621C26.1101 31.3375 26.8719 31.7379 27.4023 32.375C27.9328 33.0121 28.1884 33.8339 28.1129 34.6595C28.0375 35.4851 27.6371 36.2469 27 36.7773ZM95.75 47.5977L77 31.9727C76.6845 31.71 76.3204 31.5121 75.9284 31.3902C75.5364 31.2682 75.1243 31.2247 74.7155 31.2621C74.3067 31.2994 73.9093 31.4169 73.5459 31.6079C73.1825 31.7989 72.8603 32.0595 72.5976 32.375C72.0672 33.0121 71.8116 33.8339 71.8871 34.6595C71.9625 35.4851 72.3629 36.2469 73 36.7773L88.8672 50L73 63.2227C72.6756 63.4823 72.4062 63.8041 72.2077 64.1691C72.0092 64.5342 71.8854 64.9352 71.8437 65.3486C71.802 65.762 71.8432 66.1796 71.9648 66.577C72.0864 66.9743 72.2861 67.3434 72.5521 67.6626C72.8181 67.9819 73.1451 68.2449 73.5139 68.4362C73.8828 68.6276 74.2861 68.7434 74.7003 68.777C75.1145 68.8106 75.5312 68.7613 75.926 68.6319C76.3209 68.5025 76.686 68.2956 77 68.0234L95.75 52.3984C96.1018 52.1052 96.3849 51.7381 96.5791 51.3233C96.7734 50.9085 96.8741 50.4561 96.8741 49.998C96.8741 49.54 96.7734 49.0876 96.5791 48.6728C96.3849 48.258 96.1018 47.8909 95.75 47.5977ZM63.5664 12.6875C63.1806 12.5474 62.7711 12.4847 62.3611 12.503C61.9511 12.5212 61.5487 12.62 61.1769 12.7938C60.8051 12.9675 60.4712 13.2128 60.1942 13.5156C59.9172 13.8184 59.7025 14.1728 59.5625 14.5586L34.5625 83.3086C34.4218 83.6946 34.3587 84.1045 34.3766 84.5149C34.3946 84.9254 34.4932 85.3282 34.667 85.7005C34.8408 86.0727 35.0863 86.407 35.3894 86.6843C35.6925 86.9616 36.0474 87.1764 36.4336 87.3164C36.7759 87.4384 37.1366 87.5005 37.5 87.5C38.1418 87.5 38.768 87.3024 39.2935 86.9341C39.8191 86.5658 40.2185 86.0446 40.4375 85.4414L65.4375 16.6914C65.5775 16.3056 65.6402 15.8961 65.622 15.4861C65.6038 15.0761 65.505 14.6737 65.3312 14.3019C65.1575 13.9301 64.9122 13.5962 64.6094 13.3192C64.3066 13.0422 63.9522 12.8275 63.5664 12.6875Z" fill="black"/>
</svg>
