<svg width="100" height="100" viewBox="0 0 100 100" fill="none" xmlns="http://www.w3.org/2000/svg">
<path d="M76.0696 32.3546C74.4281 27.1785 70.4844 22.6772 64.9967 19.7161H81.3007C81.887 19.7161 82.4493 19.5273 82.8639 19.1912C83.2785 18.855 83.5114 18.3991 83.5114 17.9238C83.5114 17.4484 83.2785 16.9925 82.8639 16.6564C82.4493 16.3202 81.887 16.1314 81.3007 16.1314H58.9173C58.4303 14.5892 57.324 13.2223 55.773 12.2462C54.2219 11.27 52.3143 10.7402 50.3508 10.7402C48.3873 10.7402 46.4797 11.27 44.9286 12.2462C43.3775 13.2223 42.2713 14.5892 41.7843 16.1314H19.4008C18.8145 16.1314 18.2522 16.3202 17.8376 16.6564C17.4231 16.9925 17.1901 17.4484 17.1901 17.9238C17.1901 18.3991 17.4231 18.855 17.8376 19.1912C18.2522 19.5273 18.8145 19.7161 19.4008 19.7161H35.7048C30.2172 22.6772 26.2734 27.1785 24.6319 32.3546C22.5093 32.6292 20.5827 33.5213 19.2124 34.864C17.8421 36.2066 17.1219 37.908 17.1864 39.65C17.251 41.3919 18.0959 43.0552 19.5632 44.3287C21.0305 45.6022 23.0197 46.3989 25.1589 46.5696C27.298 46.7404 29.4406 46.2735 31.1861 45.2565C32.9315 44.2394 34.1603 42.7417 34.6426 41.0434C35.125 39.3451 34.8278 37.5625 33.8067 36.0289C32.7857 34.4954 31.1106 33.3158 29.0948 32.7109C30.044 30.0575 31.7314 27.6161 34.0271 25.5746C36.3229 23.533 39.1657 21.9458 42.337 20.935C43.0465 22.1754 44.1787 23.2254 45.6 23.9612C47.0214 24.6971 48.6727 25.0881 50.3591 25.0881C52.0455 25.0881 53.6967 24.6971 55.1181 23.9612C56.5395 23.2254 57.6717 22.1754 58.3812 20.935C61.5493 21.9475 64.3889 23.5355 66.6817 25.5769C68.9744 27.6184 70.6593 30.0589 71.6068 32.7109C69.59 33.3138 67.9131 34.4916 66.8896 36.0242C65.8662 37.5567 65.5663 39.339 66.0461 41.0378C66.5258 42.7366 67.7523 44.2356 69.4962 45.2544C71.2401 46.2733 73.382 46.7422 75.5215 46.5736C77.6609 46.405 79.6513 45.6103 81.1205 44.3382C82.5898 43.0661 83.4372 41.4037 83.5044 39.6618C83.5715 37.9199 82.8539 36.2178 81.4855 34.8737C80.1172 33.5297 78.1919 32.6358 76.0696 32.3591V32.3546ZM30.4544 39.4323C30.4544 40.1413 30.1951 40.8344 29.7093 41.4239C29.2234 42.0134 28.5329 42.4729 27.725 42.7442C26.9171 43.0155 26.0281 43.0865 25.1704 42.9482C24.3127 42.8099 23.5249 42.4684 22.9066 41.9671C22.2882 41.4658 21.8671 40.827 21.6965 40.1316C21.5259 39.4363 21.6135 38.7155 21.9481 38.0605C22.2828 37.4054 22.8495 36.8456 23.5766 36.4517C24.3037 36.0578 25.1585 35.8475 26.033 35.8475C27.2056 35.8475 28.3302 36.2252 29.1594 36.8975C29.9886 37.5698 30.4544 38.4816 30.4544 39.4323ZM50.3508 21.5085C49.4763 21.5085 48.6215 21.2983 47.8944 20.9044C47.1673 20.5105 46.6006 19.9506 46.2659 19.2956C45.9313 18.6406 45.8437 17.9198 46.0143 17.2244C46.1849 16.529 46.606 15.8903 47.2244 15.389C47.8427 14.8876 48.6305 14.5462 49.4882 14.4079C50.3459 14.2696 51.2349 14.3406 52.0428 14.6119C52.8507 14.8832 53.5412 15.3427 54.0271 15.9322C54.5129 16.5217 54.7722 17.2148 54.7722 17.9238C54.7722 18.8745 54.3064 19.7863 53.4772 20.4586C52.648 21.1308 51.5234 21.5085 50.3508 21.5085ZM74.6686 43.017C73.7941 43.017 72.9393 42.8068 72.2122 42.4129C71.4851 42.019 70.9184 41.4592 70.5837 40.8041C70.2491 40.1491 70.1615 39.4283 70.3321 38.7329C70.5027 38.0376 70.9238 37.3988 71.5422 36.8975C72.1605 36.3962 72.9483 36.0547 73.806 35.9164C74.6637 35.7781 75.5527 35.8491 76.3606 36.1204C77.1685 36.3917 77.859 36.8512 78.3449 37.4407C78.8307 38.0302 79.09 38.7233 79.09 39.4323C79.09 40.383 78.6242 41.2948 77.795 41.9671C76.9658 42.6394 75.8412 43.017 74.6686 43.017Z" fill="black"/>
<path d="M51.2979 30.2351L50.4996 51.734M39.0195 69.787L31.5599 56.7223C31.4401 56.5131 31.3842 56.2836 31.3971 56.0531C31.41 55.8227 31.4913 55.5982 31.6341 55.3987L49.6821 30.2278C49.8448 30.001 50.081 29.8148 50.3651 29.6894C50.6492 29.564 50.9703 29.5041 51.2935 29.5164C51.6166 29.5286 51.9294 29.6125 52.1979 29.7588C52.4663 29.9052 52.6801 30.1085 52.816 30.3465L67.6606 56.349C67.7673 56.5356 67.8232 56.7387 67.8246 56.9444C67.826 57.1501 67.7727 57.3536 67.6685 57.5411L60.5894 70.2256C60.4458 70.4837 60.2111 70.7016 59.915 70.8517C59.6188 71.0018 59.2745 71.0775 58.9254 71.0692L40.5714 70.6178C40.243 70.6098 39.924 70.5279 39.6499 70.3812C39.3758 70.2344 39.1575 70.0287 39.0195 69.787Z" stroke="black" stroke-width="1.5" stroke-linecap="round" stroke-linejoin="round"/>
<path d="M39.4775 70.5928L39.1248 80.1481C39.078 81.415 39.6537 82.645 40.7253 83.5677C41.7969 84.4905 43.2766 85.0304 44.8391 85.0687L53.6765 85.2878C54.4505 85.3068 55.2216 85.202 55.9456 84.9794C56.6697 84.7567 57.3325 84.4206 57.8963 83.9902C58.4601 83.5598 58.9138 83.0436 59.2315 82.471C59.5491 81.8984 59.7245 81.2807 59.7477 80.6532L60.1004 71.0979M50.2356 58.9009C50.816 58.915 51.3942 58.8362 51.937 58.6691C52.4799 58.502 52.9769 58.2498 53.3995 57.927C53.8222 57.6042 54.1623 57.2171 54.4005 56.7877C54.6386 56.3583 54.7701 55.8951 54.7874 55.4245C54.8048 54.9539 54.7076 54.4852 54.5015 54.045C54.2954 53.6049 53.9844 53.2019 53.5862 52.8593C53.1881 52.5166 52.7106 52.2408 52.181 52.0477C51.6514 51.8547 51.08 51.7481 50.4996 51.734C49.3274 51.7056 48.1893 52.0559 47.3357 52.7079C46.482 53.3598 45.9828 54.26 45.9478 55.2104C45.9128 56.1608 46.3449 57.0836 47.149 57.7757C47.9531 58.4678 49.0634 58.8725 50.2356 58.9009Z" stroke="black" stroke-width="1.5" stroke-linecap="round" stroke-linejoin="round"/>
</svg>
